<svg width="20" height="20" viewBox="0 0 20 20" fill="none" xmlns="http://www.w3.org/2000/svg">
<path d="M11.25 1.6665C11.25 1.6665 13.1945 1.84328 15.6694 4.31815C18.1443 6.79303 18.3211 8.73757 18.3211 8.73757" stroke="#999999" stroke-width="1.25" stroke-linecap="round"/>
<path d="M11.8398 4.61328C11.8398 4.61328 12.6648 4.84898 13.9022 6.08642C15.1397 7.32386 15.3754 8.14882 15.3754 8.14882" stroke="#999999" stroke-width="1.25" stroke-linecap="round"/>
<path d="M12.5839 12.5227L12.1308 12.0922L12.1308 12.0922L12.5839 12.5227ZM12.9635 12.1231L13.4166 12.5535L13.4166 12.5535L12.9635 12.1231ZM14.9774 11.8436L14.6656 12.3853L14.6656 12.3853L14.9774 11.8436ZM16.5694 12.76L16.2577 13.3017L16.5694 12.76ZM17.0181 15.632L17.4712 16.0625L17.4712 16.0625L17.0181 15.632ZM15.8343 16.8783L15.3811 16.4479L15.3811 16.4479L15.8343 16.8783ZM14.7302 17.4692L14.7916 18.0912L14.7916 18.0912L14.7302 17.4692ZM6.5128 13.7293L6.96596 13.2989L6.5128 13.7293ZM2.50241 5.80495L1.8783 5.83844L1.8783 5.83845L2.50241 5.80495ZM7.65892 7.33756L7.20576 6.90713L7.65892 7.33756ZM7.89793 7.08593L8.35109 7.51636L8.35109 7.51636L7.89793 7.08593ZM8.02854 4.74425L8.53886 4.38343L8.53886 4.38343L8.02854 4.74425ZM6.97771 3.25801L6.46739 3.61883L6.46739 3.61883L6.97771 3.25801ZM4.38454 3.0072L4.8377 3.43763L4.8377 3.43763L4.38454 3.0072ZM3.07654 4.38428L2.62338 3.95385L2.62338 3.95385L3.07654 4.38428ZM9.21927 10.8799L9.67243 10.4495L9.21927 10.8799ZM12.5839 12.5227L13.0371 12.9531L13.4166 12.5535L12.9635 12.1231L12.5103 11.6927L12.1308 12.0922L12.5839 12.5227ZM14.9774 11.8436L14.6656 12.3853L16.2577 13.3017L16.5694 12.76L16.8812 12.2183L15.2891 11.3019L14.9774 11.8436ZM17.0181 15.632L16.5649 15.2016L15.3811 16.4479L15.8343 16.8783L16.2874 17.3088L17.4712 16.0625L17.0181 15.632ZM14.7302 17.4692L14.6688 16.8473C13.473 16.9653 10.3528 16.8646 6.96596 13.2989L6.5128 13.7293L6.05964 14.1598C9.75079 18.0458 13.2717 18.2412 14.7916 18.0912L14.7302 17.4692ZM6.5128 13.7293L6.96596 13.2989C3.73586 9.8982 3.19404 7.02963 3.12651 5.77145L2.50241 5.80495L1.8783 5.83845C1.96102 7.37946 2.61533 10.5335 6.05964 14.1598L6.5128 13.7293ZM7.65892 7.33756L8.11208 7.76799L8.35109 7.51636L7.89793 7.08593L7.44477 6.6555L7.20576 6.90713L7.65892 7.33756ZM8.02854 4.74425L8.53886 4.38343L7.48804 2.89719L6.97771 3.25801L6.46739 3.61883L7.51821 5.10507L8.02854 4.74425ZM4.38454 3.0072L3.93138 2.57677L2.62338 3.95385L3.07654 4.38428L3.5297 4.81471L4.8377 3.43763L4.38454 3.0072ZM7.65892 7.33756C7.20576 6.90713 7.20518 6.90774 7.2046 6.90835C7.2044 6.90856 7.20382 6.90918 7.20342 6.9096C7.20263 6.91045 7.20183 6.91131 7.201 6.91219C7.19936 6.91396 7.19767 6.9158 7.19592 6.91772C7.19242 6.92157 7.18872 6.92573 7.18482 6.93021C7.17702 6.93917 7.16846 6.94943 7.1593 6.961C7.14098 6.98415 7.12026 7.0126 7.09852 7.04657C7.05492 7.1147 7.00764 7.20442 6.9676 7.31695C6.88619 7.54575 6.84182 7.84875 6.89726 8.22714C7.00618 8.97057 7.49331 9.97034 8.76611 11.3103L9.21927 10.8799L9.67243 10.4495C8.48272 9.19694 8.18967 8.42554 8.13405 8.04592C8.10722 7.8628 8.13448 7.76631 8.14527 7.73601C8.15133 7.71898 8.15529 7.71424 8.15141 7.7203C8.14953 7.72324 8.14579 7.72876 8.13948 7.73672C8.13633 7.74071 8.13253 7.74531 8.128 7.75052C8.12573 7.75313 8.12328 7.75589 8.12063 7.7588C8.11931 7.76025 8.11793 7.76175 8.11651 7.76328C8.1158 7.76405 8.11507 7.76482 8.11433 7.76561C8.11397 7.766 8.1134 7.7666 8.11322 7.76679C8.11265 7.76739 8.11208 7.76799 7.65892 7.33756ZM9.21927 10.8799L8.76611 11.3103C10.0352 12.6464 10.9936 13.1717 11.7248 13.2904C12.1001 13.3514 12.4038 13.3027 12.6338 13.212C12.7463 13.1676 12.8352 13.1156 12.9019 13.0682C12.9352 13.0446 12.963 13.0222 12.9854 13.0025C12.9966 12.9927 13.0064 12.9836 13.015 12.9753C13.0193 12.9711 13.0233 12.9672 13.027 12.9635C13.0288 12.9616 13.0306 12.9598 13.0323 12.9581C13.0331 12.9572 13.0339 12.9564 13.0347 12.9556C13.0351 12.9551 13.0357 12.9545 13.0359 12.9543C13.0365 12.9537 13.0371 12.9531 12.5839 12.5227C12.1308 12.0922 12.1313 12.0916 12.1319 12.091C12.1321 12.0908 12.1327 12.0903 12.133 12.0899C12.1338 12.0891 12.1345 12.0883 12.1353 12.0876C12.1367 12.0861 12.1381 12.0846 12.1395 12.0832C12.1423 12.0804 12.145 12.0778 12.1475 12.0754C12.1525 12.0705 12.1571 12.0664 12.161 12.0629C12.169 12.0559 12.175 12.0513 12.1788 12.0486C12.1866 12.0431 12.1858 12.045 12.1752 12.0492C12.1591 12.0555 12.0833 12.0823 11.9252 12.0566C11.5898 12.0021 10.8659 11.706 9.67243 10.4495L9.21927 10.8799ZM6.97771 3.25801L7.48804 2.89719C6.64338 1.70254 4.9532 1.50099 3.93138 2.57677L4.38454 3.0072L4.8377 3.43763C5.2734 2.97893 6.04043 3.01496 6.46739 3.61883L6.97771 3.25801ZM2.50241 5.80495L3.12651 5.77145C3.10865 5.4387 3.25354 5.10545 3.5297 4.81471L3.07654 4.38428L2.62338 3.95385C2.17684 4.42398 1.83744 5.07705 1.8783 5.83844L2.50241 5.80495ZM15.8343 16.8783L15.3811 16.4479C15.1486 16.6927 14.9053 16.8239 14.6688 16.8473L14.7302 17.4692L14.7916 18.0912C15.4142 18.0298 15.918 17.6977 16.2874 17.3088L15.8343 16.8783ZM7.89793 7.08593L8.35109 7.51636C9.15741 6.66746 9.21447 5.33899 8.53886 4.38343L8.02854 4.74425L7.51821 5.10507C7.86999 5.60262 7.81605 6.26461 7.44477 6.6555L7.89793 7.08593ZM16.5694 12.76L16.2577 13.3017C16.9417 13.6954 17.0756 14.664 16.5649 15.2016L17.0181 15.632L17.4712 16.0625C18.5587 14.9175 18.242 13.0015 16.8812 12.2183L16.5694 12.76ZM12.9635 12.1231L13.4166 12.5535C13.7378 12.2153 14.2383 12.1394 14.6656 12.3853L14.9774 11.8436L15.2891 11.3019C14.3737 10.775 13.2385 10.9261 12.5103 11.6927L12.9635 12.1231Z" fill="#999999"/>
</svg>
