<svg width="20" height="22" viewBox="0 0 20 22" fill="none" xmlns="http://www.w3.org/2000/svg">
<path d="M13.2773 20.3519H13.6333C14.02 20.3519 14.2573 20.173 14.3452 19.8152L14.7406 18.4351C14.934 17.7451 15.2416 17.2084 15.6635 16.825C16.0853 16.4417 16.595 16.25 17.1927 16.25C17.6673 16.25 18.0891 16.382 18.4582 16.6461C18.8274 16.9017 19.113 17.2552 19.3151 17.7067C19.5173 18.1583 19.6183 18.6524 19.6183 19.189C19.6183 19.845 19.5173 20.386 19.3151 20.8119C19.113 21.2293 18.8537 21.5318 18.5373 21.7192C18.2297 21.9066 17.9002 22.0003 17.5486 22.0003C17.2234 22.0003 16.8895 21.9364 16.5467 21.8086C16.2127 21.6894 15.7074 21.4636 15.0307 21.1314C14.8461 21.3188 14.6308 21.4679 14.3847 21.5786C14.1386 21.6808 13.8925 21.732 13.6465 21.732H13.2773V20.3519ZM15.6239 19.943C16.1776 20.2156 16.5863 20.3987 16.8499 20.4924C17.1136 20.5862 17.3553 20.633 17.575 20.633C17.8474 20.633 18.054 20.5308 18.1946 20.3263C18.344 20.1134 18.4187 19.7343 18.4187 19.189C18.4187 18.6864 18.3088 18.2988 18.0891 18.0262C17.8782 17.7451 17.5794 17.6045 17.1927 17.6045C16.9026 17.6045 16.6478 17.7067 16.4281 17.9112C16.2083 18.1071 16.0458 18.4053 15.9403 18.8057L15.6239 19.943Z" fill="#666666"/>
<path d="M13.1146 21.7429C12.227 21.7429 11.5986 21.5044 11.2295 21.0273C10.8691 20.5503 10.689 19.8688 10.689 18.9828L10.6758 13.373H11.915L11.9282 18.9828C11.9282 19.3917 11.9545 19.6899 12.0073 19.8773C12.06 20.0562 12.1655 20.184 12.3236 20.2606C12.4818 20.3288 12.7455 20.3629 13.1146 20.3629H13.4046L13.4837 21.0657L13.4046 21.7429H13.1146Z" fill="#666666"/>
<path d="M2.75186 15.3207C2.27727 16.2834 2.03998 17.1693 2.03998 17.9787C2.03998 18.7198 2.22454 19.3034 2.59366 19.7293C2.96278 20.1553 3.53844 20.3682 4.32062 20.3682H5.63892C6.21897 20.3682 6.66719 20.3086 6.98358 20.1893C7.29997 20.0701 7.51968 19.8741 7.64272 19.6015C7.77455 19.3374 7.84047 18.9669 7.84047 18.4898V14.4774H9.09284V18.4898C9.09284 19.5035 8.81161 20.3001 8.24914 20.8794C7.69545 21.4587 6.82538 21.7483 5.63892 21.7483H4.32062C3.57359 21.7483 2.93202 21.5737 2.39592 21.2244C1.8686 20.8751 1.46872 20.4151 1.19627 19.8443C0.932611 19.2735 0.800781 18.6517 0.800781 17.9787C0.800781 17.4249 0.884273 16.8754 1.05126 16.3302C1.22703 15.7765 1.44674 15.2568 1.7104 14.7713L2.75186 15.3207ZM4.54473 14.0557H6.00804V15.4613H4.54473V14.0557Z" fill="#666666"/>
<path d="M15.4883 6.287H17.1625C17.9974 6.287 18.4149 6.0144 18.4149 5.46918C18.4149 5.24769 18.3753 4.90693 18.2962 4.4469C18.2171 3.97836 18.1293 3.53963 18.0326 3.13072L19.2322 2.83682C19.3377 3.26277 19.4344 3.73557 19.5223 4.25523C19.6189 4.77488 19.6673 5.1838 19.6673 5.48196C19.6673 5.85679 19.575 6.21459 19.3904 6.55535C19.2059 6.88759 18.929 7.15594 18.5599 7.36039C18.1908 7.56485 17.7382 7.66708 17.2021 7.66708H15.4883V6.287ZM16.0024 0H17.3998V1.35452H16.0024V0ZM18.4017 0H19.7991V1.35452H18.4017V0Z" fill="#666666"/>
<path d="M12.875 6.28711H15.617L15.6961 6.96437L15.617 7.66718H12.875V6.28711Z" fill="#666666"/>
<path d="M10.2617 6.28711H13.0038L13.0829 6.96437L13.0038 7.66718H10.2617V6.28711Z" fill="#666666"/>
<path d="M7.64844 6.28711H10.3905L10.4696 6.96437L10.3905 7.66718H7.64844V6.28711Z" fill="#666666"/>
<path d="M3.57511 9.54455C4.17274 9.54455 4.62975 9.48066 4.94614 9.35287C5.27132 9.22509 5.49543 9.02489 5.61847 8.75228C5.74151 8.4882 5.80303 8.12614 5.80303 7.66611H4.45837C3.69376 7.66611 3.07855 7.44462 2.61276 7.00163C2.14696 6.55865 1.91406 5.94102 1.91406 5.14876C1.91406 4.60354 2.01953 4.10944 2.23045 3.66646C2.45017 3.22347 2.74898 2.87845 3.12689 2.6314C3.51359 2.37583 3.95302 2.24805 4.44519 2.24805C4.9725 2.24805 5.42951 2.37157 5.81621 2.61862C6.2117 2.85715 6.51491 3.19791 6.72583 3.6409C6.94555 4.07537 7.05541 4.57799 7.05541 5.14876V6.28604H7.78047L7.87275 6.98886L7.78047 7.66611H7.05541C7.05541 8.66283 6.77856 9.4551 6.22488 10.0429C5.6712 10.6307 4.78794 10.9246 3.57511 10.9246H2.11181V9.54455H3.57511ZM3.14008 5.1232C3.14008 5.54915 3.24554 5.85583 3.45647 6.04325C3.66739 6.22215 4.00136 6.3116 4.45837 6.3116H5.80303V5.13598C5.80303 4.6504 5.69317 4.2713 5.47345 3.9987C5.25374 3.72609 4.91098 3.58979 4.44519 3.58979C4.02333 3.58979 3.69815 3.73035 3.46965 4.01147C3.24993 4.28408 3.14008 4.65466 3.14008 5.1232Z" fill="#666666"/>
</svg>
